<?xml version="1.0" encoding="UTF-8" standalone="no"?>
<svg
   xmlns:dc="http://purl.org/dc/elements/1.1/"
   xmlns:cc="http://creativecommons.org/ns#"
   xmlns:rdf="http://www.w3.org/1999/02/22-rdf-syntax-ns#"
   xmlns:svg="http://www.w3.org/2000/svg"
   xmlns="http://www.w3.org/2000/svg"
   xmlns:xlink="http://www.w3.org/1999/xlink"
   xml:space="preserve"
   style="enable-background:new 0 0 225 225;"
   viewBox="0 0 225 225"
   y="0px"
   x="0px"
   id="Layer_1"
   version="1.1"><metadata
   id="metadata14"><rdf:RDF><cc:Work
       rdf:about=""><dc:format>image/svg+xml</dc:format><dc:type
         rdf:resource="http://purl.org/dc/dcmitype/StillImage" /><dc:title></dc:title></cc:Work></rdf:RDF></metadata><defs
   id="defs12"><linearGradient
     id="linearGradient863"><stop
       id="stop859"
       offset="0"
       style="stop-color:#000000;stop-opacity:1;" /><stop
       id="stop861"
       offset="1"
       style="stop-color:#000000;stop-opacity:0;" /></linearGradient><linearGradient
     id="linearGradient847"><stop
       id="stop843"
       offset="0"
       style="stop-color:#000000;stop-opacity:1;" /><stop
       id="stop845"
       offset="1"
       style="stop-color:#000000;stop-opacity:0;" /></linearGradient><linearGradient
     gradientUnits="userSpaceOnUse"
     y2="111.50071"
     x2="197.60103"
     y1="111.50071"
     x1="25.399926"
     id="linearGradient849"
     xlink:href="#linearGradient847" /><linearGradient
     gradientUnits="userSpaceOnUse"
     y2="111.50071"
     x2="197.60103"
     y1="111.50071"
     x1="25.399926"
     id="linearGradient865"
     xlink:href="#linearGradient863" /></defs>
<style
   id="style2"
   type="text/css">
	.st0{fill:none;stroke:#000000;stroke-width:20;stroke-linecap:round;stroke-miterlimit:3;}
</style>
<g
   style="fill:#ffffff;fill-opacity:1;stroke:none"
   transform="matrix(0.96969006,0,0,0.99943229,5.841657,0.26229744)"
   id="g7">
	<g
   style="fill:#ffffff;fill-opacity:1;stroke:none"
   id="g5">
		<path
   id="path841"
   d="m 89.400391,24.900391 a 10,10 0 0 0 -10,10 v 1 a 10,10 0 0 0 10,10 10,10 0 0 0 10,-10 v -1 a 10,10 0 0 0 -10,-10 z m 48.570309,2.201171 a 10,10 0 0 0 -6.94726,2.931641 L 56.724609,104.43359 a 10,10 0 0 0 0.0098,14.14258 10,10 0 0 0 14.140625,-0.01 L 145.17581,44.165776 a 10,10 0 0 0 -0.01,-14.142578 10,10 0 0 0 -7.19532,-2.921876 z m 30.50586,19.59961 a 10,10 0 0 0 -6.94726,2.927734 l -57.80078,57.800784 a 10,10 0 0 0 0,14.14062 10,10 0 0 0 14.14257,0 l 57.80079,-57.798826 a 10,10 0 0 0 0,-14.142578 10,10 0 0 0 -7.19532,-2.927734 z M 64.394531,50.900391 a 10,10 0 0 0 -6.953125,2.916015 l -29.099609,29 a 10,10 0 0 0 -0.02539,14.142578 10,10 0 0 0 14.142578,0.02344 l 29.09961,-29 a 10,10 0 0 0 0.02539,-14.140625 10,10 0 0 0 -7.189453,-2.941406 z M 187.47656,77.601562 a 10,10 0 0 0 -6.94726,2.927735 L 80.029297,181.0293 a 10,10 0 0 0 0,14.14258 10,10 0 0 0 14.142578,0 L 194.67188,94.671875 a 10,10 0 0 0 0,-14.142578 10,10 0 0 0 -7.19532,-2.927735 z m -0.19922,50.298828 a 10,10 0 0 0 -6.94922,2.92773 l -13.5996,13.60157 a 10,10 0 0 0 0,14.14062 10,10 0 0 0 14.14257,0 L 194.4707,144.9707 a 10,10 0 0 0 0,-14.14258 10,10 0 0 0 -7.19336,-2.92773 z M 36.675781,128.5 a 10,10 0 0 0 -6.947265,2.92969 l -0.199219,0.19922 a 10,10 0 0 0 0,14.14257 10,10 0 0 0 14.142578,0 l 0.199219,-0.20117 a 10,10 0 0 0 0,-14.14062 A 10,10 0 0 0 36.675781,128.5 Z m 47.019531,3 a 10,10 0 0 0 -6.953124,2.91602 l -27.701172,27.5996 a 10,10 0 0 0 -0.02539,14.14258 10,10 0 0 0 14.142578,0.0254 L 90.857422,148.58398 A 10,10 0 0 0 90.884766,134.44141 10,10 0 0 0 83.695312,131.5 Z m 53.134768,46 a 10,10 0 0 0 -8.34961,4.45312 10,10 0 0 0 2.77344,13.86719 l 0.59961,0.40039 a 10,10 0 0 0 13.86718,-2.77343 10,10 0 0 0 -2.77343,-13.86719 l -0.59961,-0.40039 A 10,10 0 0 0 136.83008,177.5 Z"
   style="color:#000000;font-style:normal;font-variant:normal;font-weight:normal;font-stretch:normal;font-size:medium;line-height:normal;font-family:sans-serif;font-variant-ligatures:normal;font-variant-position:normal;font-variant-caps:normal;font-variant-numeric:normal;font-variant-alternates:normal;font-variant-east-asian:normal;font-feature-settings:normal;font-variation-settings:normal;text-indent:0;text-align:start;text-decoration:none;text-decoration-line:none;text-decoration-style:solid;text-decoration-color:#000000;letter-spacing:normal;word-spacing:normal;text-transform:none;writing-mode:lr-tb;direction:ltr;text-orientation:mixed;dominant-baseline:auto;baseline-shift:baseline;text-anchor:start;white-space:normal;shape-padding:0;shape-margin:0;inline-size:0;clip-rule:nonzero;display:inline;overflow:visible;visibility:visible;opacity:1;isolation:auto;mix-blend-mode:normal;color-interpolation:sRGB;color-interpolation-filters:linearRGB;solid-color:#000000;solid-opacity:1;vector-effect:none;fill:#ffffff;fill-opacity:1;fill-rule:nonzero;stroke:none;stroke-width:20;stroke-linecap:round;stroke-linejoin:miter;stroke-miterlimit:3;stroke-dasharray:none;stroke-dashoffset:0;stroke-opacity:1;color-rendering:auto;image-rendering:auto;shape-rendering:auto;text-rendering:auto;enable-background:accumulate;stop-color:#000000;stop-opacity:1" />
	</g>
</g>
</svg>
